<?xml version="1.0" encoding="UTF-8" standalone="no"?>
<svg
   id="svg1"
   sodipodi:docname="favicon.svg"
   viewBox="0 0 32 32"
   sodipodi:version="0.32"
   _SVGFile__filename="favicon.svg"
   version="1.0"
   y="0"
   x="0"
   inkscape:version="1.2.1 (8a69933317, 2022-10-28, custom)"
   width="32"
   height="32"
   xmlns:inkscape="http://www.inkscape.org/namespaces/inkscape"
   xmlns:sodipodi="http://sodipodi.sourceforge.net/DTD/sodipodi-0.dtd"
   xmlns="http://www.w3.org/2000/svg"
   xmlns:svg="http://www.w3.org/2000/svg"
   xmlns:rdf="http://www.w3.org/1999/02/22-rdf-syntax-ns#"
   xmlns:cc="http://creativecommons.org/ns#"
   xmlns:dc="http://purl.org/dc/elements/1.1/">
  <defs
     id="defs9" />
  <sodipodi:namedview
     id="base"
     bordercolor="#666666"
     inkscape:pageshadow="2"
     inkscape:window-y="0"
     pagecolor="#ffffff"
     inkscape:window-height="1051"
     inkscape:zoom="9.1088126"
     inkscape:window-x="0"
     borderopacity="1.0"
     inkscape:current-layer="svg1"
     inkscape:cx="25.908975"
     inkscape:cy="14.052326"
     inkscape:window-width="1920"
     inkscape:pageopacity="0.0"
     inkscape:showpageshadow="2"
     inkscape:pagecheckerboard="0"
     inkscape:deskcolor="#d1d1d1"
     showgrid="false"
     inkscape:window-maximized="1" />
  <g
     id="g334"
     transform="matrix(0.63837146,0,0,1.0000138,-9.7083971e-7,-1.5208279e-6)">
    <path
       id="path1716"
       style="color:#000000;display:block;fill:none;stroke:#ffffff;stroke-width:8.53242;stroke-linecap:round;stroke-linejoin:round"
       d="m 6.328157,4.2662116 h 37.47099 c 1.142491,0 2.062286,0.918942 2.062286,2.0605802 V 25.673208 c 0,1.141638 -0.919795,2.06058 -2.062286,2.06058 H 6.328157 c -1.1423208,0 -2.0619454,-0.918942 -2.0619454,-2.06058 V 6.3267918 c 0,-1.1416382 0.9196246,-2.0605802 2.0619454,-2.0605802 z" />
    <path
       id="rect1089"
       style="color:#000000;display:block;fill:#ffffff;stroke:#000000;stroke-width:4.26621;stroke-linecap:round;stroke-linejoin:round"
       d="m 6.328157,4.2662116 h 37.47099 c 1.142491,0 2.062286,0.918942 2.062286,2.0605802 V 25.673208 c 0,1.141638 -0.919795,2.06058 -2.062286,2.06058 H 6.328157 c -1.1423208,0 -2.0619454,-0.918942 -2.0619454,-2.06058 V 6.3267918 c 0,-1.1416382 0.9196246,-2.0605802 2.0619454,-2.0605802 z" />
    <path
       id="path1089"
       sodipodi:nodetypes="ccccccccc"
       style="color:#000000;display:block;fill:#476cb3;stroke-width:0.853242"
       d="m 10.17116,8.5341297 h 23.385666 c 0.90785,0 1.639078,0.584471 1.639078,1.3105802 V 22.15529 c 0,0.726109 -0.731228,1.31058 -1.639078,1.31058 H 10.17116 c -0.9078494,0 -1.6390781,-0.584471 -1.6390781,-1.31058 V 9.8447099 c 0,-0.7261092 0.7312287,-1.3105802 1.6390781,-1.3105802 z" />
  </g>
  <metadata
     id="metadata6">
    <rdf:RDF>
      <cc:Work>
        <dc:format>image/svg+xml</dc:format>
        <dc:type
           rdf:resource="http://purl.org/dc/dcmitype/StillImage" />
        <cc:license
           rdf:resource="http://creativecommons.org/publicdomain/zero/1.0/" />
        <dc:publisher>
          <cc:Agent
             rdf:about="http://openclipart.org/">
            <dc:title>Openclipart</dc:title>
          </cc:Agent>
        </dc:publisher>
      </cc:Work>
      <cc:License
         rdf:about="http://creativecommons.org/publicdomain/zero/1.0/">
        <cc:permits
           rdf:resource="http://creativecommons.org/ns#Reproduction" />
        <cc:permits
           rdf:resource="http://creativecommons.org/ns#Distribution" />
        <cc:permits
           rdf:resource="http://creativecommons.org/ns#DerivativeWorks" />
      </cc:License>
    </rdf:RDF>
  </metadata>
</svg>
